<mxfile host="app.diagrams.net" modified="2021-03-30T04:01:51.119Z" agent="5.0 (Windows NT 10.0; Win64; x64) AppleWebKit/537.36 (KHTML, like Gecko) Chrome/91.0.4451.0 Safari/537.36 Edg/91.0.841.0" etag="wDMV-O5LUzkfyHIGa9vl" version="14.4.4" type="github">
  <diagram id="5aa129d9-4b51-9b99-0a78-bb2f967fc3d4" name="Page-1">
    <mxGraphModel dx="1822" dy="794" grid="1" gridSize="10" guides="1" tooltips="1" connect="1" arrows="1" fold="1" page="0" pageScale="1" pageWidth="827" pageHeight="1169" background="#ffffff" math="0" shadow="0">
      <root>
        <mxCell id="0" />
        <mxCell id="1" parent="0" />
        <mxCell id="y1rh6phJj4241kgfLrmI-49" value="&lt;font style=&quot;font-size: 14px&quot;&gt;商家&lt;/font&gt;" style="shape=umlActor;verticalLabelPosition=bottom;verticalAlign=top;html=1;outlineConnect=0;movable=1;resizable=1;rotatable=1;deletable=1;editable=1;connectable=1;" parent="1" vertex="1">
          <mxGeometry x="-53" y="80" width="30" height="60" as="geometry" />
        </mxCell>
        <mxCell id="y1rh6phJj4241kgfLrmI-62" value="饭票系统" style="shape=umlLifeline;perimeter=lifelinePerimeter;whiteSpace=wrap;html=1;container=1;collapsible=0;recursiveResize=0;outlineConnect=0;fontSize=14;" parent="1" vertex="1">
          <mxGeometry x="400" y="80" width="120" height="820" as="geometry" />
        </mxCell>
        <mxCell id="y1rh6phJj4241kgfLrmI-63" value="" style="html=1;points=[];perimeter=orthogonalPerimeter;fillColor=#60a917;strokeColor=#2D7600;fontColor=#ffffff;" parent="y1rh6phJj4241kgfLrmI-62" vertex="1">
          <mxGeometry x="55" y="280" width="10" height="112" as="geometry" />
        </mxCell>
        <mxCell id="y1rh6phJj4241kgfLrmI-64" value="&lt;font style=&quot;font-size: 14px&quot;&gt;科脉微平台系统&lt;/font&gt;" style="shape=umlLifeline;perimeter=lifelinePerimeter;whiteSpace=wrap;html=1;container=1;collapsible=0;recursiveResize=0;outlineConnect=0;" parent="1" vertex="1">
          <mxGeometry x="120" y="80" width="120" height="820" as="geometry" />
        </mxCell>
        <mxCell id="y1rh6phJj4241kgfLrmI-65" value="" style="html=1;points=[];perimeter=orthogonalPerimeter;fillColor=#1ba1e2;strokeColor=#006EAF;fontColor=#ffffff;" parent="y1rh6phJj4241kgfLrmI-64" vertex="1">
          <mxGeometry x="54" y="120" width="10" height="90" as="geometry" />
        </mxCell>
        <mxCell id="y1rh6phJj4241kgfLrmI-76" value="" style="endArrow=none;dashed=1;html=1;movable=1;resizable=1;rotatable=1;deletable=1;editable=1;connectable=1;" parent="1" edge="1">
          <mxGeometry width="50" height="50" relative="1" as="geometry">
            <mxPoint x="-38.5" y="900" as="sourcePoint" />
            <mxPoint x="-38.5" y="160" as="targetPoint" />
          </mxGeometry>
        </mxCell>
        <mxCell id="y1rh6phJj4241kgfLrmI-77" value="&lt;div style=&quot;text-align: left&quot;&gt;&lt;span style=&quot;font-size: 14px&quot;&gt;&lt;font color=&quot;#333333&quot;&gt;导入科脉微平台系统券码&lt;/font&gt;&lt;/span&gt;&lt;/div&gt;" style="html=1;verticalAlign=bottom;endArrow=block;labelBackgroundColor=none;fontFamily=Verdana;fontSize=12;edgeStyle=elbowEdgeStyle;elbow=vertical;" parent="1" edge="1" target="y1rh6phJj4241kgfLrmI-62">
          <mxGeometry x="-0.1041" y="10" relative="1" as="geometry">
            <mxPoint x="-40" y="370" as="sourcePoint" />
            <mxPoint x="170" y="410" as="targetPoint" />
            <mxPoint as="offset" />
          </mxGeometry>
        </mxCell>
        <mxCell id="QpcFcwuWjfST1NYp_s-o-3" value="&lt;div style=&quot;text-align: left&quot;&gt;&lt;span style=&quot;font-size: 14px&quot;&gt;&lt;font color=&quot;#333333&quot;&gt;导出券码&lt;/font&gt;&lt;/span&gt;&lt;/div&gt;" style="html=1;verticalAlign=bottom;endArrow=block;labelBackgroundColor=none;fontFamily=Verdana;fontSize=12;edgeStyle=elbowEdgeStyle;elbow=vertical;" edge="1" parent="1">
          <mxGeometry x="-0.1041" y="10" relative="1" as="geometry">
            <mxPoint x="-40" y="280" as="sourcePoint" />
            <mxPoint x="170" y="281" as="targetPoint" />
            <mxPoint as="offset" />
          </mxGeometry>
        </mxCell>
        <mxCell id="QpcFcwuWjfST1NYp_s-o-5" value="&lt;span style=&quot;color: rgb(51 , 51 , 51) ; text-align: left&quot;&gt;&lt;font style=&quot;font-size: 14px&quot;&gt;创建第三方券码兑换活动&lt;/font&gt;&lt;/span&gt;" style="html=1;verticalAlign=bottom;endArrow=block;labelBackgroundColor=none;fontFamily=Verdana;fontSize=12;edgeStyle=elbowEdgeStyle;elbow=vertical;" edge="1" parent="1">
          <mxGeometry x="-0.1041" y="10" relative="1" as="geometry">
            <mxPoint x="-40" y="210" as="sourcePoint" />
            <mxPoint x="170" y="210" as="targetPoint" />
            <mxPoint as="offset" />
            <Array as="points">
              <mxPoint x="65" y="210" />
            </Array>
          </mxGeometry>
        </mxCell>
      </root>
    </mxGraphModel>
  </diagram>
</mxfile>
